<?xml version="1.0" standalone="no"?>
<!DOCTYPE svg PUBLIC "-//W3C//DTD SVG 20010904//EN"
 "http://www.w3.org/TR/2001/REC-SVG-20010904/DTD/svg10.dtd">
<svg version="1.0" xmlns="http://www.w3.org/2000/svg"
 width="1024.000000pt" height="367.000000pt" viewBox="0 0 1024.000000 367.000000"
 preserveAspectRatio="xMidYMid meet">

<g transform="translate(0.000000,367.000000) scale(0.100000,-0.100000)"
fill="#000000" stroke="none">
<path d="M5773 3370 c0 -30 2 -43 4 -27 2 15 2 39 0 55 -2 15 -4 2 -4 -28z"/>
<path d="M4325 3183 c-51 -7 -63 -15 -35 -23 35 -11 1402 -12 1419 -1 11 7 11
10 0 17 -14 9 -1325 15 -1384 7z"/>
<path d="M5268 3033 c46 -2 118 -2 160 0 42 1 5 3 -83 3 -88 0 -123 -2 -77 -3z"/>
<path d="M6157 3033 c-4 -3 -7 -13 -7 -22 1 -13 3 -13 11 2 11 19 8 33 -4 20z"/>
<path d="M3138 2998 c3 -18 13 -38 22 -45 20 -14 16 -55 -6 -74 -8 -6 -14 -26
-14 -43 l1 -31 24 28 c21 23 25 38 25 90 0 40 -6 70 -16 85 -23 33 -41 28 -36
-10z"/>
<path d="M6140 2860 c0 -71 4 -130 9 -130 13 0 23 131 15 199 -11 103 -24 67
-24 -69z"/>
<path d="M8291 2867 c-1 -54 2 -97 7 -95 63 31 62 30 62 78 0 37 -5 51 -25 68
-14 12 -25 19 -26 14 0 -4 -4 2 -9 13 -6 13 -9 -14 -9 -78z"/>
<path d="M2395 2898 c12 -89 16 -101 33 -114 28 -22 32 -17 32 42 0 71 -21
113 -58 114 -9 0 -11 -12 -7 -42z"/>
<path d="M5784 2585 c0 -132 2 -185 3 -117 2 68 2 176 0 240 -1 64 -3 9 -3
-123z"/>
<path d="M3937 2754 c-2 -15 -1 -38 3 -53 7 -21 8 -16 9 27 1 56 -4 67 -12 26z"/>
<path d="M8041 2764 c0 -11 3 -14 6 -6 3 7 2 16 -1 19 -3 4 -6 -2 -5 -13z"/>
<path d="M8743 2733 c114 -2 300 -2 415 0 114 1 20 2 -208 2 -228 0 -322 -1
-207 -2z"/>
<path d="M9408 2733 c23 -2 61 -2 85 0 23 2 4 4 -43 4 -47 0 -66 -2 -42 -4z"/>
<path d="M9609 2731 c21 -4 37 -14 42 -26 7 -19 8 -19 8 1 1 24 -17 35 -57 33
-23 -1 -22 -2 7 -8z"/>
<path d="M5328 2683 c12 -2 32 -2 45 0 12 2 2 4 -23 4 -25 0 -35 -2 -22 -4z"/>
<path d="M9511 2681 c-15 -10 -7 -31 12 -31 26 0 87 21 87 30 0 12 -80 13 -99
1z"/>
<path d="M2147 2564 c-43 -42 -76 -78 -74 -80 2 -2 39 32 82 76 44 44 77 80
75 80 -3 0 -40 -34 -83 -76z"/>
<path d="M6391 2631 c-8 -5 -10 -14 -6 -21 6 -9 10 -8 17 4 12 21 7 28 -11 17z"/>
<path d="M1182 2478 c1 -75 2 -81 5 -28 5 108 6 108 66 113 l52 3 -62 2 -63 2
2 -92z"/>
<path d="M1505 2560 c99 -3 189 -10 200 -15 18 -8 19 -7 6 8 -12 15 -36 17
-200 15 l-186 -2 180 -6z"/>
<path d="M1239 2333 c1 -109 5 -200 7 -202 2 -3 20 10 39 29 l35 33 2 156 3
156 165 3 c90 1 169 7 174 12 7 7 -67 10 -210 10 l-219 0 4 -197z"/>
<path d="M6835 1830 c0 -371 1 -523 2 -338 2 186 2 490 0 675 -1 186 -2 34 -2
-337z"/>
<path d="M2005 2430 c-41 -41 -28 -43 15 -3 19 18 31 33 25 32 -5 0 -23 -13
-40 -29z"/>
<path d="M1865 2288 l-40 -43 43 40 c39 36 47 45 39 45 -2 0 -21 -19 -42 -42z"/>
<path d="M9133 2323 c26 -2 67 -2 90 0 23 2 2 3 -48 3 -49 0 -68 -1 -42 -3z"/>
<path d="M8838 2313 c7 -3 16 -2 19 1 4 3 -2 6 -13 5 -11 0 -14 -3 -6 -6z"/>
<path d="M8785 2300 c-13 -6 -15 -9 -5 -9 8 0 22 4 30 9 18 12 2 12 -25 0z"/>
<path d="M4815 2290 c-16 -4 13 -5 65 -2 52 3 97 6 99 8 8 7 -134 2 -164 -6z"/>
<path d="M9575 2290 c3 -5 13 -10 21 -10 8 0 12 5 9 10 -3 6 -13 10 -21 10 -8
0 -12 -4 -9 -10z"/>
<path d="M9448 2283 c7 -3 16 -2 19 1 4 3 -2 6 -13 5 -11 0 -14 -3 -6 -6z"/>
<path d="M9108 1993 c17 -2 47 -2 65 0 17 2 3 4 -33 4 -36 0 -50 -2 -32 -4z"/>
<path d="M8260 1933 c-36 -61 -50 -111 -50 -178 0 -82 6 -95 41 -95 29 0 29 1
29 56 0 30 7 86 16 124 14 63 14 71 0 85 -8 9 -13 22 -10 30 11 28 -4 15 -26
-22z"/>
<path d="M9345 1914 c139 -48 175 -77 175 -139 0 -63 -30 -84 -174 -120 -112
-29 -79 -32 53 -5 182 37 234 66 226 126 -6 52 -22 72 -73 98 -47 24 -215 67
-255 65 -12 0 10 -11 48 -25z"/>
<path d="M4536 1831 c-9 -10 -19 -35 -23 -55 -7 -43 13 -78 59 -102 l32 -17
-37 35 c-44 42 -49 83 -16 129 23 32 12 40 -15 10z"/>
<path d="M8333 1685 c0 -22 2 -30 4 -17 2 12 2 30 0 40 -3 9 -5 -1 -4 -23z"/>
<path d="M8720 1676 c0 -2 7 -7 16 -10 8 -3 12 -2 9 4 -6 10 -25 14 -25 6z"/>
<path d="M6380 1596 c0 -24 -3 -51 -6 -60 -4 -10 -1 -16 9 -16 21 0 26 19 20
73 -7 59 -23 61 -23 3z"/>
<path d="M8341 1632 c-1 -15 26 -82 33 -82 3 0 -1 15 -8 33 -7 17 -16 39 -19
47 -3 10 -6 10 -6 2z"/>
<path d="M1185 1619 c-4 -6 -5 -12 -2 -15 2 -3 7 2 10 11 7 17 1 20 -8 4z"/>
<path d="M8855 1615 c22 -7 49 -14 60 -14 l20 0 -20 8 c-11 5 -38 11 -60 14
l-40 6 40 -14z"/>
<path d="M8975 1589 c22 -4 54 -8 70 -7 22 0 19 3 -15 9 -60 10 -108 9 -55 -2z"/>
<path d="M6174 1456 c-3 -14 -2 -35 2 -48 l8 -23 7 25 c11 37 10 70 -1 70 -5
0 -12 -11 -16 -24z"/>
<path d="M5278 1293 c7 -3 16 -2 19 1 4 3 -2 6 -13 5 -11 0 -14 -3 -6 -6z"/>
<path d="M7730 1256 c0 -2 8 -10 18 -17 15 -13 16 -12 3 4 -13 16 -21 21 -21
13z"/>
<path d="M9103 1243 c20 -2 54 -2 75 0 20 2 3 4 -38 4 -41 0 -58 -2 -37 -4z"/>
<path d="M4853 1233 c26 -2 67 -2 90 0 23 2 2 3 -48 3 -49 0 -68 -1 -42 -3z"/>
<path d="M7880 1135 c40 -30 78 -55 84 -55 6 0 2 6 -9 12 -11 6 -46 31 -77 55
-31 23 -60 43 -64 43 -4 0 26 -25 66 -55z"/>
<path d="M2612 1101 c11 -19 58 -22 58 -3 0 13 -2 14 -42 17 -22 2 -25 -1 -16
-14z"/>
<path d="M7847 1089 c12 -12 24 -21 27 -18 2 2 -8 13 -22 23 l-27 19 22 -24z"/>
<path d="M2390 1009 c-22 -18 -22 -19 -3 -10 12 6 25 16 28 21 9 15 3 12 -25
-11z"/>
<path d="M2329 963 c-13 -16 -12 -17 4 -4 16 13 21 21 13 21 -2 0 -10 -8 -17
-17z"/>
<path d="M1614 950 c-12 -5 -24 -14 -26 -22 -3 -8 -41 -33 -84 -56 -183 -99
-240 -155 -231 -226 6 -45 12 -52 52 -60 44 -9 57 3 43 40 -16 43 -3 95 33
132 17 17 75 58 129 92 54 33 104 67 111 76 16 20 0 34 -27 24z"/>
<path d="M2259 913 c-13 -16 -12 -17 4 -4 16 13 21 21 13 21 -2 0 -10 -8 -17
-17z"/>
<path d="M2209 879 l-24 -20 28 17 c15 9 27 18 27 20 0 8 -8 4 -31 -17z"/>
<path d="M1390 864 c-80 -45 -120 -76 -140 -109 -11 -18 -20 -36 -20 -41 0 -5
9 5 19 23 11 17 55 55 98 84 110 73 128 92 43 43z"/>
<path d="M5688 873 c12 -2 30 -2 40 0 9 3 -1 5 -23 4 -22 0 -30 -2 -17 -4z"/>
<path d="M5758 873 c7 -3 16 -2 19 1 4 3 -2 6 -13 5 -11 0 -14 -3 -6 -6z"/>
<path d="M4782 732 c-3 -152 6 -187 47 -187 14 0 26 6 29 13 2 7 -5 12 -17 12
-32 0 -41 37 -41 176 0 68 -3 124 -7 124 -5 0 -9 -62 -11 -138z"/>
<path d="M6828 808 c-4 -50 -1 -69 15 -96 11 -18 21 -31 23 -29 2 2 1 43 -4
92 -9 107 -27 125 -34 33z"/>
<path d="M7915 760 c-1 -102 4 -126 20 -100 4 6 11 8 16 5 5 -4 9 35 9 94 0
56 -4 101 -9 101 -5 0 -15 2 -23 5 -10 4 -13 -18 -13 -105z"/>
<path d="M2083 802 c-78 -49 -140 -93 -93 -67 50 28 190 117 190 121 0 6 1 7
-97 -54z"/>
<path d="M8142 730 c-5 -180 7 -221 51 -172 26 29 24 209 -3 262 -36 70 -45
53 -48 -90z"/>
<path d="M7470 775 c0 -43 4 -56 19 -65 31 -16 34 -13 27 38 -10 68 -16 82
-32 82 -10 0 -14 -14 -14 -55z"/>
<path d="M8390 671 c0 -169 8 -215 38 -209 23 4 29 60 22 215 -6 121 -15 153
-46 153 -11 0 -14 -31 -14 -159z"/>
<path d="M5547 802 c-24 -26 -44 -80 -52 -137 -5 -36 -4 -46 4 -35 6 8 11 24
11 35 1 28 37 106 62 133 17 17 18 22 6 22 -8 0 -22 -8 -31 -18z"/>
<path d="M5990 730 c0 -29 7 -65 17 -83 20 -38 20 -43 -13 -126 -15 -38 -21
-68 -16 -73 12 -12 25 6 46 65 10 27 25 51 33 54 12 5 12 8 0 22 -31 34 -49
85 -49 137 0 30 -5 54 -9 54 -5 0 -9 -23 -9 -50z"/>
<path d="M9626 754 c-14 -36 -6 -102 15 -128 l22 -27 -23 -16 c-19 -14 -22
-22 -18 -69 5 -64 10 -71 41 -57 16 8 28 26 37 57 12 45 19 51 50 46 10 -1 6
8 -11 27 -35 37 -49 66 -49 98 0 33 -15 62 -39 75 -15 7 -20 6 -25 -6z"/>
<path d="M3118 712 c2 -26 -1 -65 -7 -87 -14 -50 -6 -57 25 -22 19 23 24 39
24 86 0 44 -4 60 -16 65 -28 11 -31 7 -26 -42z"/>
<path d="M3557 740 c-3 -8 -8 -37 -10 -64 -3 -28 -14 -61 -27 -78 -26 -35 -23
-43 47 -132 43 -54 66 -69 44 -29 -5 10 -23 49 -40 86 -28 62 -29 71 -17 95
21 41 28 86 17 113 -7 18 -10 20 -14 9z"/>
<path d="M4073 655 c1 -55 -2 -113 -6 -130 l-8 -30 17 24 c24 34 31 155 11
201 -15 34 -15 33 -14 -65z"/>
<path d="M4556 720 c4 -19 10 -57 15 -85 8 -48 8 -47 5 16 -2 37 -9 75 -15 85
-10 16 -11 13 -5 -16z"/>
<path d="M1938 714 c-38 -20 -36 -28 2 -9 17 9 30 18 30 20 0 7 -1 6 -32 -11z"/>
<path d="M8622 688 c2 -28 8 -34 31 -36 15 -2 27 1 27 7 0 6 -4 11 -9 11 -4 0
-6 11 -3 25 4 22 1 25 -22 25 -25 0 -27 -3 -24 -32z"/>
<path d="M9865 711 c-2 -5 21 -18 52 -29 36 -13 51 -16 42 -7 -20 19 -88 45
-94 36z"/>
<path d="M2906 703 c-12 -12 -6 -73 7 -73 23 0 49 26 46 45 -4 18 -42 38 -53
28z m34 -28 c0 -8 -4 -15 -10 -15 -5 0 -10 7 -10 15 0 8 5 15 10 15 6 0 10 -7
10 -15z"/>
<path d="M3330 701 c0 -6 9 -11 21 -11 12 0 19 -5 16 -12 -2 -7 -12 -12 -21
-12 -9 1 -16 -5 -16 -13 0 -9 8 -13 23 -11 17 2 22 10 22 33 0 23 -5 31 -22
33 -13 2 -23 -1 -23 -7z"/>
<path d="M7661 694 c0 -11 3 -14 6 -6 3 7 2 16 -1 19 -3 4 -6 -2 -5 -13z"/>
<path d="M3806 684 c-21 -20 -26 -90 -8 -104 4 -3 12 -14 18 -25 14 -25 47
-31 63 -11 11 13 9 17 -12 25 -29 11 -41 40 -39 94 2 42 0 44 -22 21z"/>
<path d="M4318 693 c-6 -13 -2 -132 5 -139 8 -8 57 4 57 14 0 5 -10 8 -22 8
-21 -1 -23 3 -23 55 0 53 -8 81 -17 62z"/>
<path d="M6175 692 c6 -6 24 -14 40 -18 21 -4 27 -3 20 4 -5 6 -23 14 -40 18
-21 4 -27 3 -20 -4z"/>
<path d="M7113 672 c-59 -135 -73 -176 -73 -214 0 -24 4 -49 9 -57 10 -15 22
15 71 167 26 79 28 96 17 112 -12 17 -13 17 -24 -8z"/>
<path d="M1848 664 c-27 -13 -48 -27 -48 -29 0 -3 23 6 50 20 28 14 50 28 50
30 0 7 1 7 -52 -21z"/>
<path d="M7574 569 c7 -122 17 -164 39 -156 8 2 13 46 15 140 l3 137 -32 0
-32 0 7 -121z"/>
<path d="M9356 678 c-3 -7 -7 -50 -10 -95 -6 -75 -4 -87 19 -133 20 -40 30
-50 50 -50 24 0 25 3 25 58 0 86 -19 171 -41 183 -11 5 -19 16 -19 24 0 19
-19 29 -24 13z"/>
<path d="M5778 637 c5 -40 -24 -77 -58 -77 -11 0 -20 -4 -20 -10 0 -5 15 -10
34 -10 56 0 87 68 53 114 -12 16 -13 14 -9 -17z"/>
<path d="M7310 621 c0 -5 -3 -16 -6 -25 -4 -11 0 -16 14 -16 15 0 19 5 15 20
-6 22 -23 38 -23 21z"/>
<path d="M1720 600 c-8 -5 -10 -10 -5 -10 6 0 17 5 25 10 8 5 11 10 5 10 -5 0
-17 -5 -25 -10z"/>
<path d="M9126 594 c-9 -23 -8 -24 19 -24 23 0 24 2 13 20 -15 24 -24 25 -32
4z"/>
<path d="M9775 589 c10 -15 77 -46 115 -53 32 -6 33 -5 10 6 -84 38 -130 56
-125 47z"/>
<path d="M6586 554 c-10 -26 -7 -142 4 -149 6 -4 10 25 10 79 0 86 -3 100 -14
70z"/>
<path d="M8841 522 c-12 -34 -11 -42 9 -75 12 -20 25 -37 29 -37 4 0 15 25 26
55 18 53 18 56 0 75 -28 31 -50 25 -64 -18z"/>
<path d="M9790 541 c23 -19 69 -36 75 -29 2 2 -20 13 -49 26 -45 20 -48 20
-26 3z"/>
<path d="M3331 473 c0 -26 3 -56 7 -65 6 -14 9 -15 26 -3 18 14 18 16 2 60
-24 62 -36 65 -35 8z"/>
</g>
</svg>
