<?xml version="1.0" standalone="no"?>
<!DOCTYPE svg PUBLIC "-//W3C//DTD SVG 20010904//EN"
 "http://www.w3.org/TR/2001/REC-SVG-20010904/DTD/svg10.dtd">
<svg version="1.0" xmlns="http://www.w3.org/2000/svg"
 width="930.000000pt" height="328.000000pt" viewBox="0 0 930.000000 328.000000"
 preserveAspectRatio="xMidYMid meet">

<g transform="translate(0.000000,328.000000) scale(0.100000,-0.100000)"
fill="#000000" stroke="none">
<path d="M3864 3086 c-16 -12 -19 -27 -19 -105 0 -75 3 -94 21 -118 40 -54 21
-53 712 -53 l644 0 29 29 c34 35 40 65 6 33 -23 -22 -28 -22 -375 -22 -243 0
-353 3 -358 11 -4 8 70 9 267 5 151 -4 314 -3 363 1 81 7 91 11 109 35 12 16
22 48 25 81 6 71 -21 103 -90 110 -26 2 -45 1 -42 -4 3 -5 22 -9 43 -9 33 0
40 -4 51 -30 18 -42 8 -129 -16 -147 -28 -21 -1322 -15 -1347 6 -22 17 -24
152 -4 169 7 6 60 13 118 15 l104 3 -111 2 c-82 1 -115 -2 -130 -12z m183
-230 c11 -12 -146 -1 -157 10 -6 6 23 7 70 3 44 -3 83 -9 87 -13z m261 -3
c-10 -2 -28 -2 -40 0 -13 2 -5 4 17 4 22 1 32 -1 23 -4z"/>
<path d="M4418 3093 c34 -2 90 -2 125 0 34 2 6 3 -63 3 -69 0 -97 -1 -62 -3z"/>
<path d="M4638 3093 c12 -2 30 -2 40 0 9 3 -1 5 -23 4 -22 0 -30 -2 -17 -4z"/>
<path d="M4753 3093 c9 -2 25 -2 35 0 9 3 1 5 -18 5 -19 0 -27 -2 -17 -5z"/>
<path d="M7852 2760 c-159 -4 -185 -7 -196 -22 -17 -24 -28 -160 -17 -225 8
-56 23 -80 56 -93 20 -9 20 -9 -1 -9 -27 -1 -71 40 -79 72 -4 14 -5 81 -3 150
l3 125 -30 -12 c-46 -19 -55 -47 -55 -176 0 -91 3 -121 16 -139 35 -50 49 -51
549 -51 l465 0 0 -139 c0 -77 2 -145 5 -153 3 -7 1 -19 -4 -26 -7 -11 -22 -10
-87 3 -102 22 -219 22 -317 1 -241 -51 -483 -210 -570 -373 -20 -37 -37 -59
-37 -49 -1 63 112 201 232 283 97 67 160 98 260 127 69 21 77 25 46 25 -54 1
-190 -44 -285 -94 -157 -83 -273 -191 -325 -301 -28 -61 -30 -71 -26 -157 5
-115 31 -170 118 -250 106 -99 329 -189 428 -173 18 2 30 1 27 -3 -2 -5 33
-12 80 -16 150 -12 351 12 519 62 l88 27 22 -29 c45 -63 118 -146 140 -160 32
-21 132 -33 121 -15 -6 10 -2 11 19 6 18 -4 34 -2 44 6 13 11 12 14 -13 18
-21 4 -51 32 -113 105 -46 55 -91 110 -101 123 l-16 23 -55 -24 c-245 -108
-533 -139 -754 -83 -192 49 -349 152 -396 259 -62 141 -12 316 123 429 280
233 604 279 948 134 31 -14 39 36 39 254 0 152 -3 211 -12 216 -7 4 -237 9
-512 11 -595 4 -536 -13 -536 152 0 80 4 112 16 129 l15 22 657 0 c563 0 661
-2 686 -15 35 -18 37 -18 30 -1 -13 34 -49 36 -542 34 -268 -1 -569 -5 -670
-8z m-299 -1253 c2 -49 0 -82 -4 -75 -9 16 -12 57 -9 133 3 77 8 54 13 -58z
m410 -383 l42 -14 -40 6 c-22 3 -53 12 -70 19 l-30 14 28 -6 c16 -3 47 -12 70
-19z m943 -41 c21 -26 33 -44 27 -40 -14 9 -77 87 -70 87 3 0 22 -21 43 -47z"/>
<path d="M5677 2753 c-35 -9 -47 -55 -47 -187 0 -124 0 -126 29 -158 23 -26
39 -33 82 -39 l54 -6 -57 -2 c-48 -1 -61 3 -88 25 l-31 27 3 163 c3 161 3 163
-16 144 -17 -17 -19 -35 -20 -167 -1 -126 2 -153 16 -176 21 -31 78 -49 146
-45 44 3 47 2 53 -27 9 -39 11 -766 3 -871 l-7 -81 -63 -6 c-82 -6 -114 -26
-114 -70 0 -23 8 -41 28 -59 34 -32 310 -221 378 -259 79 -45 77 -34 -4 18
-39 26 -70 48 -68 50 2 2 41 -19 87 -47 96 -58 119 -66 148 -50 54 28 52 4 51
724 l-1 666 311 0 310 0 2 -87 c1 -49 0 -302 -1 -563 l-3 -475 23 -34 c27 -39
226 -195 276 -217 47 -20 116 -18 144 5 l24 19 3 858 c2 758 1 860 -13 881
l-15 23 -388 0 c-342 0 -390 -2 -412 -16 -14 -9 -78 -69 -142 -132 -65 -64
-121 -113 -125 -109 -4 4 31 47 78 95 46 48 96 100 109 116 l25 30 -30 -21
c-16 -12 -61 -53 -100 -92 -38 -39 -75 -71 -82 -71 -10 0 -13 22 -13 80 0 89
-11 123 -47 139 -23 11 -456 14 -496 4z m506 -34 c14 -18 17 -42 17 -150 0
-109 3 -131 16 -136 11 -4 60 38 163 141 l148 146 369 0 c318 0 373 -2 392
-16 l22 -15 0 -849 c0 -758 -2 -850 -16 -864 -8 -9 -21 -16 -29 -16 -15 0
-135 87 -232 169 l-63 52 0 594 0 595 -22 5 c-13 3 -183 4 -378 3 l-355 -3 -5
-698 c-5 -678 -6 -699 -24 -713 -25 -18 -45 -12 -126 37 -101 61 -342 232
-354 251 -17 28 6 41 89 46 41 2 77 8 80 11 2 4 5 250 6 547 l2 539 -94 3
c-129 3 -129 3 -129 178 0 117 2 136 18 152 17 17 37 18 253 15 225 -3 235 -4
252 -24z m569 -376 c-95 -2 -248 -2 -340 0 -92 1 -14 3 173 3 187 0 262 -2
167 -3z m207 -1189 c10 -13 7 -12 -9 3 l-24 23 2 292 c1 161 3 421 4 578 2
174 5 59 8 -296 4 -485 7 -584 19 -600z m-1102 659 c-3 -260 -8 -477 -11 -482
-3 -5 -36 -12 -73 -16 -48 -5 -75 -13 -90 -28 -20 -17 -23 -18 -23 -4 0 27 40
45 113 53 l67 7 0 479 c0 352 3 477 11 472 8 -5 10 -135 6 -481z m-67 -664
c83 -56 140 -105 74 -63 -38 24 -156 105 -168 116 -30 25 15 0 94 -53z"/>
<path d="M2547 2720 l-27 -21 0 -761 0 -760 28 -24 c99 -85 246 -194 261 -194
9 0 26 7 37 15 25 19 40 19 24 0 -19 -23 22 -20 50 3 l23 18 1 649 1 649 315
1 c226 0 321 4 336 13 12 6 27 26 33 43 15 42 13 255 -2 298 -24 68 -32 44
-29 -81 5 -152 -3 -204 -33 -234 -24 -23 -28 -24 -192 -23 l-168 2 165 8 c216
12 204 0 208 199 3 148 3 150 -22 175 -25 25 -25 25 -214 25 l-189 0 -100 -95
-101 -95 -4 70 c-3 56 -8 74 -28 95 -13 14 -27 25 -32 25 -4 0 -6 -30 -2 -67
3 -38 1 -86 -4 -108 -9 -36 -10 -31 -11 47 -1 77 -4 90 -25 115 -24 27 -27 28
-148 31 -114 3 -125 2 -151 -18z m281 -12 c8 -8 12 -53 12 -136 0 -192 -6
-191 174 -13 l152 151 177 0 c189 0 206 -4 208 -53 0 -12 1 -77 2 -143 3 -179
36 -164 -364 -164 -180 0 -330 -4 -333 -8 -2 -4 -6 -302 -7 -662 -1 -360 -6
-663 -11 -672 -5 -10 -15 -18 -23 -18 -16 0 -148 98 -223 165 l-52 47 0 740
c0 490 3 746 10 759 10 17 22 19 138 19 86 0 132 -4 140 -12z m270 -395 c-38
-2 -98 -2 -135 0 -38 2 -7 3 67 3 74 0 105 -1 68 -3z m-209 -465 c-1 -167 -4
-246 -10 -218 -14 81 -8 480 7 480 2 0 3 -118 3 -262z m0 -610 l-2 -73 -7 60
c-7 53 -5 85 6 85 2 0 3 -33 3 -72z"/>
<path d="M2561 1808 c1 -40 4 -84 8 -98 6 -20 8 -15 13 29 6 63 -1 141 -13
141 -5 0 -9 -33 -8 -72z"/>
<path d="M2567 1456 c-4 -43 -7 -116 -7 -161 0 -79 1 -84 27 -100 23 -15 28
-16 37 -3 6 8 19 17 28 21 16 5 16 9 3 34 -8 15 -15 40 -15 56 0 15 -6 27 -12
27 -35 1 -43 20 -48 112 l-5 93 -8 -79z"/>
<path d="M192 2714 c-12 -8 -22 -20 -22 -25 0 -6 10 -3 22 5 20 14 110 16 778
16 830 -1 1061 -8 1127 -35 87 -35 111 -140 52 -228 -17 -26 -251 -264 -520
-530 l-489 -482 0 -228 c0 -137 4 -236 10 -247 15 -28 33 -35 165 -65 66 -14
124 -30 128 -34 16 -16 -6 -38 -90 -85 -107 -61 -155 -108 -172 -168 -33 -118
49 -187 209 -175 169 13 415 137 789 396 96 67 180 121 187 121 22 0 25 -31 5
-58 -31 -44 -300 -302 -385 -370 -185 -148 -397 -262 -574 -309 -132 -35 -354
-43 -467 -18 -144 32 -237 97 -286 200 -32 67 -40 55 -9 -14 48 -105 131 -167
270 -202 73 -19 103 -21 249 -16 181 5 232 15 410 84 52 20 108 38 125 40 41
4 163 72 278 154 177 126 518 456 518 500 0 43 -27 69 -71 69 -21 0 -39 -2
-39 -5 0 -2 11 -15 25 -29 23 -23 34 -56 19 -56 -3 0 -15 11 -26 25 -31 40
-62 32 -168 -41 -238 -164 -381 -251 -526 -321 -66 -31 -121 -59 -124 -62 -3
-3 -14 -7 -25 -7 -11 -1 -41 -5 -67 -9 -62 -10 -130 1 -157 26 -27 25 -29 97
-3 128 9 12 67 54 127 94 96 63 110 76 113 102 6 58 -34 77 -221 110 -75 12
-77 18 -77 253 l0 207 475 469 c262 257 490 488 507 513 55 81 48 175 -19 233
-19 17 -37 30 -39 28 -2 -2 3 -22 11 -43 29 -81 15 -158 -40 -220 l-26 -30 25
50 c36 73 42 117 21 170 -19 52 -60 90 -113 105 -54 17 -562 29 -1257 29 -537
1 -613 -1 -633 -15z m1163 -1780 c117 -20 135 -27 135 -56 0 -20 -1 -20 -18
-5 -9 9 -37 20 -62 26 -25 6 -81 18 -124 28 -44 10 -81 24 -84 30 -2 9 4 10
25 3 15 -5 73 -16 128 -26z m-7 -464 l67 -7 -63 -2 c-62 -1 -122 18 -122 39 0
6 12 3 26 -7 14 -9 56 -20 92 -23z m671 24 c-33 -40 -319 -220 -319 -200 0 2
39 27 88 55 48 28 119 76 157 106 70 54 99 69 74 39z"/>
<path d="M4015 2720 c-113 -8 -134 -29 -137 -132 -5 -132 4 -197 30 -221 l24
-22 473 -3 474 -3 7 -21 c3 -12 3 -93 -1 -180 -5 -112 -4 -158 4 -158 8 0 11
59 11 190 l0 190 -192 2 -193 2 185 6 c102 3 191 3 198 1 9 -2 12 -51 12 -202
0 -178 -2 -199 -16 -199 -10 0 -58 13 -108 29 -234 75 -425 66 -623 -28 -172
-83 -338 -237 -378 -352 -19 -54 -19 -142 0 -206 17 -58 75 -148 96 -148 14
-1 129 -74 129 -82 0 -2 -6 -1 -12 2 -7 4 -4 -1 7 -9 11 -9 25 -14 32 -12 7 3
13 1 13 -5 0 -6 4 -8 8 -5 5 3 40 -6 78 -19 38 -14 76 -25 84 -25 8 0 29 -8
45 -17 43 -23 272 -28 403 -9 118 18 223 46 216 58 -5 8 16 12 49 10 9 -1 17
2 17 6 0 4 11 8 24 8 19 2 39 -15 88 -73 35 -42 74 -91 88 -109 14 -18 30 -35
37 -38 12 -5 -63 98 -136 184 -25 30 -37 48 -27 40 10 -8 56 -60 103 -117 47
-57 91 -103 97 -103 6 0 4 -5 -4 -10 -11 -7 -7 -10 17 -10 51 0 63 21 62 103
-1 40 2 122 6 183 4 61 3 114 -1 117 -11 6 -10 820 1 920 4 37 3 76 -1 85 -5
9 -8 80 -9 157 0 156 -8 183 -59 209 -27 14 -98 17 -591 19 -308 1 -591 0
-630 -3z m1228 -42 c15 -12 16 -87 18 -849 1 -460 -1 -841 -5 -847 -4 -7 -11
-12 -16 -12 -5 0 -43 42 -84 93 -42 50 -89 108 -105 127 l-29 34 -108 -36
c-294 -98 -525 -108 -751 -33 -242 82 -359 199 -358 360 1 96 34 165 122 257
109 113 218 179 365 222 168 48 320 41 517 -25 99 -33 117 -35 125 -13 3 9 6
112 6 230 l0 214 -427 2 c-236 1 -448 3 -473 4 -25 2 -59 3 -77 3 -54 2 -63
20 -63 134 0 77 4 108 16 125 l15 22 648 0 c502 0 651 -3 664 -12z m-1332
-285 c13 -16 12 -17 -3 -4 -17 13 -22 21 -14 21 2 0 10 -8 17 -17z m126 -29
c-3 -3 -12 -4 -19 -1 -8 3 -5 6 6 6 11 1 17 -2 13 -5z m245 -1 c-40 -2 -103
-2 -140 0 -37 2 -4 3 73 3 77 0 107 -2 67 -3z m205 1 c-3 -3 -12 -4 -19 -1 -8
3 -5 6 6 6 11 1 17 -2 13 -5z"/>
<path d="M4315 1744 c-88 -17 -188 -66 -216 -105 -26 -37 -29 -107 -5 -144 21
-31 114 -77 206 -101 47 -13 104 -17 205 -17 163 1 269 19 362 62 52 25 67 37
79 67 46 110 -44 194 -259 238 -93 19 -275 20 -372 0z m248 -21 c-34 -2 -93
-2 -130 0 -37 2 -9 3 62 3 72 0 102 -1 68 -3z m114 -9 c-3 -3 -12 -4 -19 -1
-8 3 -5 6 6 6 11 1 17 -2 13 -5z m-21 -19 c103 -17 164 -40 212 -79 63 -53 31
-114 -76 -145 -116 -33 -173 -42 -288 -42 -155 0 -313 43 -349 95 -87 123 198
220 501 171z m121 -5 c31 -11 62 -25 67 -31 8 -9 7 -10 -3 -4 -8 5 -46 19 -85
31 -39 12 -63 23 -53 23 10 1 43 -8 74 -19z m141 -177 c-23 -50 -135 -91 -306
-114 -167 -22 -402 20 -469 83 -34 32 -28 44 7 15 96 -81 366 -110 581 -61
119 27 187 72 190 128 2 20 2 20 6 -1 2 -12 -2 -35 -9 -50z"/>
<path d="M8683 2703 c-7 -2 -13 -13 -13 -23 0 -10 -16 -32 -35 -48 -28 -25
-31 -31 -17 -35 11 -3 7 -7 -14 -12 -18 -4 -37 -17 -45 -31 -7 -14 -19 -22
-26 -20 -16 7 -17 -6 -2 -21 9 -9 7 -10 -10 -6 -15 4 -21 1 -21 -11 0 -14 15
-16 105 -16 76 0 115 -4 135 -15 l30 -16 0 -220 c0 -299 -10 -316 -151 -264
-55 20 -109 30 -207 38 -164 14 -164 13 -168 -99 -1 -44 -7 -80 -14 -84 -6 -4
49 -10 122 -13 181 -8 309 -47 386 -121 44 -40 54 -69 46 -124 -14 -90 -96
-146 -271 -181 -131 -27 -306 -28 -419 -2 -45 10 -86 21 -92 25 -5 3 -12 -3
-15 -14 -3 -11 -12 -20 -21 -20 -9 0 -16 -7 -16 -15 0 -9 -7 -18 -15 -21 -8
-4 -15 -13 -15 -21 0 -11 -7 -14 -21 -10 -15 4 -18 2 -10 -7 12 -14 4 -28 -23
-43 -17 -9 -14 -13 30 -32 71 -32 177 -60 274 -72 153 -19 402 19 568 87 45
19 88 34 96 34 7 0 47 -41 87 -91 107 -131 118 -144 121 -139 2 3 1 379 -2
835 l-5 830 -170 2 c-93 1 -176 -1 -182 -4z"/>
<path d="M201 2665 c-11 -14 17 -305 30 -322 9 -10 63 -13 255 -13 240 0 243
0 258 -22 14 -20 16 -108 16 -756 l0 -735 -40 -72 c-53 -96 -74 -188 -60 -263
35 -193 174 -274 470 -275 271 -1 516 97 817 326 87 66 323 295 323 313 0 4
-8 0 -17 -8 -26 -22 -370 -235 -489 -301 -169 -96 -361 -155 -457 -143 -129
18 -200 110 -167 219 15 54 103 141 188 185 35 19 61 37 57 40 -3 3 -47 14
-97 24 -121 25 -153 40 -174 80 -19 36 -20 63 -16 332 l2 169 425 425 c234
234 425 433 425 442 0 18 -32 51 -66 68 -12 6 -24 24 -27 40 -3 16 -13 37 -22
45 -8 9 -15 20 -15 26 0 5 -10 11 -22 13 -14 2 -23 10 -23 20 0 10 -6 23 -13
30 -6 6 -12 17 -12 24 0 6 -7 17 -15 24 -20 16 -19 27 3 34 11 3 8 5 -8 4 -14
0 -38 1 -55 2 l-30 3 35 6 c65 13 -240 21 -863 24 -397 1 -611 -1 -616 -8z
m1449 -367 c11 -12 20 -28 20 -36 0 -7 -28 -43 -62 -79 -102 -107 -389 -361
-416 -368 -29 -7 -47 7 -73 56 -17 34 -19 60 -19 225 0 160 2 190 17 206 15
16 37 18 264 18 242 0 249 -1 269 -22z"/>
<path d="M1147 2284 c-4 -4 -7 -88 -7 -186 0 -185 10 -241 44 -254 30 -11 460
390 454 424 -3 15 -24 17 -244 20 -132 1 -243 -1 -247 -4z m411 -65 c-2 -5
-62 -68 -133 -140 -90 -90 -131 -125 -137 -117 -4 7 -8 70 -8 141 l0 127 141
0 c95 0 140 -3 137 -11z"/>
<path d="M191 2340 c-1 -20 18 -44 46 -58 13 -7 77 -13 155 -14 l133 -2 -110
-5 c-94 -5 -103 -7 -65 -14 25 -4 116 -5 202 -2 143 5 157 4 167 -12 8 -15 10
-10 11 25 l0 42 -235 0 c-241 0 -284 6 -298 42 -4 9 -6 8 -6 -2z"/>
<path d="M724 1845 c0 -121 2 -169 3 -107 2 62 2 161 0 220 -1 59 -3 8 -3
-113z"/>
<path d="M8215 1990 c-3 -6 1 -7 9 -4 18 7 21 14 7 14 -6 0 -13 -4 -16 -10z"/>
<path d="M8089 1761 c-47 -10 -99 -26 -116 -34 -71 -37 -123 -99 -123 -147 0
-92 155 -170 368 -186 152 -11 391 34 473 89 32 22 34 26 37 91 3 66 2 68 -32
101 -97 91 -387 132 -607 86z m269 -47 c85 -18 158 -47 190 -76 22 -22 30 -79
14 -105 -23 -37 -180 -76 -354 -88 -89 -7 -103 -5 -184 21 -102 33 -144 68
-144 118 0 53 75 108 193 141 60 17 169 13 285 -11z m292 -219 c0 -24 -221
-76 -317 -74 l-58 1 60 9 c121 16 200 32 249 50 55 19 66 21 66 14z"/>
<path d="M7834 1625 c-7 -19 -14 -41 -14 -50 0 -20 40 -99 46 -92 3 3 -2 19
-10 36 -18 34 -20 78 -6 115 14 39 1 31 -16 -9z"/>
<path d="M724 1340 c0 -85 2 -120 3 -77 2 42 2 112 0 155 -1 42 -3 7 -3 -78z"/>
<path d="M723 1145 c0 -22 2 -30 4 -17 2 12 2 30 0 40 -3 9 -5 -1 -4 -23z"/>
<path d="M722 938 c-2 -113 -3 -118 -36 -175 -19 -32 -37 -69 -41 -83 -3 -14
14 12 40 58 l46 83 -4 117 -3 117 -2 -117z"/>
<path d="M3512 771 c-9 -5 6 -10 42 -13 62 -5 121 -43 138 -88 9 -23 7 -23
-24 7 -88 85 -226 82 -301 -6 -43 -52 -60 -146 -37 -207 16 -41 69 -103 104
-121 47 -25 132 -21 185 8 24 13 54 30 67 37 44 24 94 120 94 181 0 37 -42
121 -76 153 -52 49 -153 74 -192 49z m103 -76 c58 -33 80 -81 80 -171 0 -62
-3 -75 -29 -108 -54 -72 -151 -95 -232 -55 -71 34 -115 130 -95 205 36 135
165 195 276 129z"/>
<path d="M3463 616 c-24 -21 -28 -31 -28 -79 0 -45 5 -60 24 -81 24 -26 68
-34 106 -20 19 8 45 55 45 81 -1 12 -5 10 -13 -10 l-12 -27 -32 20 c-29 18
-33 25 -33 65 0 46 3 49 45 46 20 -2 20 -1 1 14 -29 22 -71 18 -103 -9z m42
-164 c-3 -3 -11 0 -18 7 -9 10 -8 11 6 5 10 -3 15 -9 12 -12z"/>
<path d="M4250 767 c-22 -11 -18 -12 43 -15 81 -4 90 -19 10 -18 -54 1 -57 0
-64 -26 -4 -15 -4 -85 0 -156 6 -111 10 -132 30 -160 34 -49 73 -65 146 -60
52 3 70 9 108 38 31 24 46 43 47 58 0 13 4 21 9 18 5 -3 12 2 16 11 8 21 7
301 -1 314 -5 9 -107 2 -134 -9 -8 -4 17 -9 55 -12 69 -5 70 -5 72 -35 1 -20
0 -23 -4 -7 -4 20 -10 22 -62 22 l-58 0 -9 -107 c-8 -100 -11 -108 -31 -111
-20 -3 -21 2 -27 80 -4 46 -7 106 -9 133 l-2 50 -55 2 c-30 1 -66 -3 -80 -10z
m90 -167 c0 -115 1 -122 25 -145 29 -30 55 -32 86 -6 23 18 24 25 24 143 l0
123 43 3 42 3 0 -133 c0 -159 -11 -189 -83 -227 -78 -40 -164 -14 -204 62 -17
33 -32 249 -20 281 4 11 19 16 47 16 l40 0 0 -120z m247 -112 c-2 -18 -4 -6
-4 27 0 33 2 48 4 33 2 -15 2 -42 0 -60z m-171 -36 c-10 -2 -22 0 -28 6 -6 6
0 7 19 4 21 -5 23 -7 9 -10z"/>
<path d="M5115 763 c-74 -39 -120 -115 -119 -198 0 -57 21 -128 35 -120 5 4 9
2 9 -4 0 -19 64 -84 97 -97 38 -16 121 -18 157 -4 14 5 46 28 70 50 69 64 80
149 34 266 -22 59 -48 87 -100 109 -48 19 -144 19 -183 -2z m190 -25 c26 -14
85 -69 85 -81 0 -5 -18 7 -41 27 -22 20 -51 41 -65 46 -39 15 -122 12 -157 -7
-29 -14 -31 -15 -19 0 28 33 143 42 197 15z m-7 -32 c91 -47 127 -167 81 -264
-65 -132 -259 -131 -320 2 -44 98 -8 225 76 262 40 18 129 18 163 0z"/>
<path d="M5175 620 c-4 -6 -11 -8 -16 -5 -13 9 -29 -39 -29 -86 0 -86 100
-132 155 -73 25 26 29 44 25 94 -2 30 -26 70 -41 70 -8 0 -8 -4 -2 -12 24 -31
-6 -115 -44 -124 -17 -5 -31 0 -47 15 -12 12 -26 18 -29 14 -4 -3 -7 8 -7 26
0 20 9 42 24 58 20 21 30 25 58 19 23 -4 29 -3 18 4 -20 13 -57 13 -65 0z m-5
-145 c14 -19 14 -19 -2 -6 -10 7 -18 18 -18 24 0 6 1 8 3 6 1 -2 9 -13 17 -24z"/>
<path d="M5518 760 c-20 -11 -44 -30 -52 -42 -21 -30 -21 -121 -1 -138 24 -20
21 -38 -21 -137 -22 -50 -15 -85 13 -62 7 6 13 7 13 2 0 -18 76 -46 140 -50
76 -5 121 14 158 67 28 42 28 88 -1 131 -22 33 -23 35 -5 79 28 73 24 88 -24
110 -95 43 -217 11 -248 -65 -9 -20 -9 -19 -9 1 -1 12 9 34 21 49 44 56 129
70 219 36 35 -14 47 -15 39 -6 -36 43 -180 58 -242 25z m207 -54 c40 -17 39
-15 24 -67 l-12 -38 -28 20 c-15 11 -45 20 -66 22 -34 2 -38 -1 -41 -24 -3
-23 2 -27 58 -44 98 -30 133 -91 95 -165 -21 -41 -66 -62 -135 -61 -61 0 -130
22 -130 41 0 12 28 70 34 70 2 0 20 -7 39 -15 46 -19 91 -19 106 -1 10 12 8
18 -11 29 -13 8 -36 18 -52 21 -45 11 -106 77 -106 115 0 43 15 68 53 91 39
24 122 26 172 6z"/>
<path d="M5973 773 c-10 -4 -13 -54 -13 -207 0 -190 1 -204 20 -221 19 -18 20
-17 20 6 1 21 2 22 11 7 8 -14 23 -18 70 -18 l60 0 -4 38 c-2 20 -1 48 3 62
l6 25 14 -25 c26 -48 73 -101 81 -89 5 8 8 8 13 0 8 -12 106 -15 106 -3 0 4
-16 6 -35 4 -46 -5 -56 4 -132 121 -35 53 -66 97 -69 97 -3 0 -4 -48 -3 -107
l2 -108 -43 0 -43 0 -1 175 -1 175 46 3 47 3 49 -68 c26 -37 57 -81 68 -98
l20 -30 5 100 5 100 38 3 37 3 1 -48 c1 -26 0 -86 -1 -132 -1 -58 2 -81 9 -77
7 5 11 54 11 137 l0 131 -65 -4 c-47 -2 -65 0 -65 10 0 8 19 12 63 12 75 1 59
15 -26 23 -77 8 -87 3 -87 -42 0 -49 -8 -56 -32 -26 -17 22 -27 25 -83 25
l-64 0 -4 -97 -3 -98 -2 103 -2 102 65 0 c38 0 65 4 65 10 0 6 -6 12 -12 15
-22 6 -132 12 -145 8z"/>
<path d="M6525 772 c-6 -4 -35 -65 -64 -137 -29 -71 -62 -145 -72 -163 -24
-43 -26 -130 -3 -139 9 -3 19 -1 23 5 3 6 12 8 18 4 6 -4 36 -5 66 -4 51 3 56
6 66 33 9 28 13 29 69 29 45 0 61 -4 66 -16 10 -26 6 -30 -9 -11 -7 10 -21 17
-30 15 -14 -3 -14 -5 -1 -24 13 -18 26 -22 91 -23 45 -1 75 3 75 9 0 5 -23 10
-51 10 -47 0 -51 2 -60 30 -11 29 -12 30 -80 30 l-70 0 -15 -35 c-13 -32 -18
-35 -55 -35 -35 0 -40 3 -36 18 3 9 34 91 69 182 l63 165 40 3 c27 2 43 -1 51
-13 10 -14 12 -13 17 4 6 25 -5 28 -69 23 l-52 -4 -27 -64 c-36 -86 -43 -76
-9 15 l26 71 57 0 c51 1 54 2 37 15 -21 16 -113 21 -131 7z m-24 -209 c-12
-20 -14 -14 -5 12 4 9 9 14 11 11 3 -2 0 -13 -6 -23z"/>
<path d="M8098 762 c-8 -9 -27 -49 -41 -89 -51 -139 -90 -233 -98 -233 -10 0
-22 57 -14 70 3 6 0 7 -9 4 -14 -5 -14 -2 0 31 15 37 12 89 -7 100 -5 4 -5 -3
-1 -16 6 -15 3 -35 -10 -61 l-19 -38 -64 6 c-61 6 -64 6 -59 -14 7 -26 71 -36
77 -12 3 10 8 5 18 -15 24 -50 69 -115 79 -115 12 0 1 23 -38 83 -14 20 -22
40 -18 44 3 3 8 4 10 2 10 -12 86 -137 86 -143 0 -3 -21 -6 -48 -6 -45 0 -48
2 -70 43 -12 23 -31 53 -42 67 -17 21 -21 23 -30 10 -5 -8 -10 -40 -10 -70 0
-61 6 -57 -72 -51 -16 1 -18 16 -18 176 l0 175 90 0 c98 0 137 -12 164 -52 20
-28 21 -16 2 21 -8 15 -33 36 -55 46 -36 16 -53 17 -141 9 -55 -5 -100 -6
-100 -3 0 13 32 19 98 20 62 1 64 2 27 10 -22 4 -75 8 -118 8 -71 1 -79 -1
-84 -19 -5 -18 -14 -20 -74 -20 -83 0 -94 19 -11 21 47 1 52 3 27 9 -16 4 -58
8 -92 9 -53 1 -64 -2 -73 -19 -9 -17 -20 -20 -73 -18 l-62 1 55 7 c45 5 51 8
35 15 -11 6 -137 10 -285 10 l-265 0 -3 -62 c-3 -68 0 -72 71 -87 l27 -6 0
-116 c0 -109 1 -116 25 -139 24 -24 45 -32 45 -17 0 4 29 5 65 4 l65 -4 0 73
c0 85 -8 87 -14 3 l-4 -59 -42 0 -42 0 -1 140 -2 140 -47 3 c-47 3 -48 4 -48
38 l0 34 145 0 c136 0 145 -1 145 -19 0 -11 3 -26 6 -35 5 -12 -5 -16 -57 -18
-34 -2 -64 -7 -66 -13 -2 -6 20 -9 56 -7 l58 4 5 -86 c3 -66 9 -93 25 -114 21
-29 79 -72 96 -72 6 0 1 10 -10 23 -36 39 -37 53 -2 21 19 -17 46 -38 61 -47
34 -21 119 -22 157 -2 35 18 81 71 81 93 0 9 -8 1 -19 -18 -27 -51 -72 -74
-140 -72 -63 2 -95 20 -126 73 -16 27 -20 57 -23 162 l-4 128 48 -3 49 -3 1
-122 c0 -136 7 -153 59 -153 52 0 59 18 65 159 l5 126 42 3 c38 3 43 1 49 -23
4 -15 4 -73 2 -130 -3 -57 -1 -102 4 -99 4 3 8 -11 8 -31 0 -20 5 -45 10 -56
12 -21 64 -51 74 -42 3 4 81 5 174 4 288 -5 325 -4 318 8 -3 4 -17 6 -31 4
-46 -9 -56 1 -36 40 9 18 42 97 71 175 l55 142 42 0 c39 0 44 -3 63 -37 12
-21 18 -29 15 -18 -4 11 -9 34 -12 52 -5 29 -11 34 -57 47 -88 24 -152 27
-168 8z m-953 -24 c11 -1 -54 -5 -145 -8 -91 -3 -168 -4 -173 -2 -4 2 -4 8 -1
14 5 8 243 6 319 -4z m1045 -28 c-11 -23 -34 -78 -51 -123 -40 -112 -81 -208
-86 -203 -2 2 3 21 11 42 8 22 35 94 60 162 52 139 63 162 77 162 5 0 0 -18
-11 -40z m-760 -255 c-7 -8 -20 -15 -29 -15 -13 1 -13 3 3 15 26 19 42 19 26
0z m421 -70 c8 -16 6 -15 -10 4 -12 13 -21 28 -21 35 0 12 14 -5 31 -39z"/>
<path d="M8717 759 c-37 -19 -41 -20 -101 -5 -34 9 -90 16 -124 16 l-62 0 -2
-167 c-1 -201 -2 -182 7 -216 l7 -28 -53 3 c-47 3 -54 6 -59 28 -5 23 -11 25
-66 28 -56 3 -61 1 -72 -22 -9 -20 -9 -24 2 -20 7 3 32 -5 56 -17 34 -18 56
-22 118 -20 43 2 84 2 92 1 52 -4 178 -5 193 -2 9 3 17 11 17 18 0 17 10 17
47 3 15 -5 68 -16 117 -23 97 -15 139 -9 178 25 l23 21 -25 -16 c-43 -28 -150
-18 -206 19 -23 15 -24 17 -8 46 11 23 20 29 32 23 78 -33 146 -29 140 8 -2
16 -18 26 -65 42 -73 25 -101 48 -108 90 -19 99 96 156 225 111 31 -11 41 -12
38 -2 -7 21 -77 49 -127 51 -27 0 -45 4 -39 7 5 3 -5 9 -22 13 -58 11 -114 6
-153 -15z m-165 -21 c-6 -7 -12 -26 -15 -43 -3 -24 -4 -22 -6 13 -1 33 3 42
15 42 12 0 14 -3 6 -12z m293 -4 c-16 -8 -40 -25 -52 -36 -13 -12 -23 -17 -23
-11 0 12 39 48 60 56 33 12 43 6 15 -9z m-185 -204 l0 -180 -47 0 -48 0 -1
180 -1 180 49 0 48 0 0 -180z m48 -3 c2 -10 -3 -17 -12 -17 -10 0 -16 9 -16
21 0 24 23 21 28 -4z m-399 -161 c-3 -3 -11 5 -18 17 -13 21 -12 21 5 5 10
-10 16 -20 13 -22z"/>
<path d="M8602 533 c2 -114 6 -157 16 -161 9 -3 12 33 12 157 0 138 -2 161
-15 161 -13 0 -15 -22 -13 -157z"/>
<path d="M2560 748 c-19 -20 -20 -34 -20 -221 l0 -199 83 5 c45 2 90 8 100 12
20 8 31 45 25 80 -5 25 6 32 82 49 14 3 39 19 57 36 18 16 34 30 37 30 3 0 7
-46 8 -102 3 -100 4 -103 27 -106 45 -7 130 9 153 28 l23 18 -25 51 c-23 47
-53 72 -68 56 -3 -3 -6 -34 -7 -68 l0 -62 -45 0 -45 0 0 105 c0 168 -4 222
-15 215 -6 -3 -18 7 -27 24 -33 56 -76 71 -206 71 -107 0 -118 -2 -137 -22z
m248 -21 c13 -6 30 -23 38 -38 l14 -27 -51 34 c-28 19 -60 34 -70 34 -10 0
-19 5 -19 11 0 12 52 4 88 -14z m-22 -36 c20 -12 37 -34 44 -56 30 -92 -32
-165 -141 -165 l-39 0 0 -60 0 -60 -50 0 -50 0 0 180 0 180 103 0 c83 0 108
-4 133 -19z"/>
<path d="M2613 682 l-43 -3 0 -150 0 -149 24 0 c23 0 25 5 28 47 3 42 7 50 33
62 l30 15 -32 13 c-30 12 -33 17 -33 56 0 24 7 52 15 63 13 17 14 15 15 -33 0
-58 8 -67 50 -58 57 12 63 71 12 100 -25 14 -25 15 -3 9 17 -4 22 -2 19 7 -5
16 -56 25 -115 21z"/>
<path d="M2740 520 c-13 -8 -12 -10 3 -10 9 0 17 5 17 10 0 12 -1 12 -20 0z"/>
<path d="M2968 763 c-10 -2 -18 -9 -18 -15 0 -6 34 -7 98 -3 119 9 171 -7 196
-60 22 -47 21 -80 -2 -36 -31 63 -60 76 -179 79 -67 3 -109 0 -116 -7 -8 -8
19 -11 96 -11 76 0 117 -4 137 -15 53 -28 64 -122 19 -179 -19 -24 -19 -27 -3
-58 9 -18 25 -45 35 -60 11 -14 19 -29 19 -33 0 -4 -25 -5 -55 -3 -50 3 -68
-3 -47 -16 4 -2 45 -7 89 -10 111 -6 115 0 69 98 -38 79 -43 101 -26 111 6 3
10 41 10 84 0 69 -3 80 -24 100 -13 13 -41 27 -63 32 -39 9 -204 10 -235 2z"/>
<path d="M3810 760 c0 -6 39 -10 98 -10 128 -1 192 -25 223 -83 6 -11 -8 -4
-36 17 -54 42 -82 48 -200 44 l-90 -3 0 -195 0 -195 105 4 c113 3 154 17 199
65 13 14 28 23 33 20 14 -9 58 98 58 141 0 22 -11 63 -24 91 -25 53 -58 83
-115 102 -42 15 -251 16 -251 2z m243 -65 c46 -21 76 -69 83 -132 18 -144 -75
-220 -258 -211 l-63 3 -3 38 c-2 21 2 45 9 53 8 10 8 14 0 14 -7 0 -11 39 -11
124 0 110 2 125 18 130 37 11 189 -1 225 -19z m97 -252 c-11 -17 -11 -17 -6 0
3 10 6 24 7 30 0 9 2 9 5 0 3 -7 0 -20 -6 -30z"/>
<path d="M3915 628 c-3 -8 -5 -53 -3 -99 3 -80 4 -84 27 -87 65 -10 111 28
111 91 0 34 -6 49 -28 71 -34 32 -99 46 -107 24z m101 -42 c23 -36 15 -71 -16
-71 -23 0 -25 4 -28 48 -4 54 16 65 44 23z"/>
<path d="M4640 760 c0 -5 71 -10 170 -12 158 -3 193 1 154 16 -26 10 -324 7
-324 -4z"/>
<path d="M4647 724 c-4 -4 -7 -29 -7 -56 l0 -48 38 0 c20 0 42 -4 47 -8 6 -4
11 -60 12 -124 3 -148 8 -160 71 -151 26 3 50 9 55 12 4 4 8 64 8 133 0 138 0
137 69 138 24 0 25 3 22 45 -3 28 0 45 7 45 6 0 11 4 11 9 0 11 -322 15 -333
5z m303 -49 l0 -35 -50 0 -50 0 0 -145 0 -145 -45 0 -45 0 0 145 0 145 -50 0
-50 0 0 35 0 35 145 0 145 0 0 -35z"/>
<path d="M8868 684 c-43 -23 -60 -72 -42 -119 8 -21 54 -44 101 -50 38 -4 73
-34 73 -61 0 -35 -78 -56 -134 -35 -18 7 -27 6 -35 -3 -17 -20 8 -36 66 -42
89 -11 162 41 148 104 -8 40 -40 67 -108 92 -63 24 -75 37 -57 69 15 29 51 35
95 17 47 -20 45 -20 45 4 0 10 -9 24 -19 30 -28 15 -101 12 -133 -6z"/>
<path d="M8241 677 c-11 -14 -71 -170 -71 -185 0 -4 5 0 10 8 7 11 9 5 8 -22
-1 -40 -7 -45 -25 -27 -7 7 -12 4 -16 -10 -3 -13 -1 -19 5 -15 6 4 8 -2 6 -12
-2 -11 -10 -18 -16 -17 -7 2 -12 -2 -12 -7 0 -6 7 -10 15 -10 8 0 15 4 15 10
0 5 10 18 22 30 17 16 35 20 85 20 61 0 65 -2 81 -30 11 -19 25 -30 40 -30 12
0 22 1 22 3 0 1 -27 70 -59 152 -45 115 -64 151 -78 153 -11 2 -25 -3 -32 -11z
m57 -120 c28 -66 28 -75 -2 -83 -43 -10 -81 -1 -84 22 -4 28 34 114 51 114 7
0 23 -24 35 -53z"/>
<path d="M8243 550 c-22 -49 -21 -60 5 -60 33 0 38 13 26 60 l-11 45 -20 -45z"/>
<path d="M2977 673 c-11 -11 -8 -273 3 -273 6 0 11 8 11 18 1 18 4 34 8 42 7
15 6 52 -1 56 -5 3 -4 12 3 20 6 8 8 14 3 14 -5 0 -9 29 -9 65 0 62 -3 73 -18
58z"/>
<path d="M6690 675 c0 -5 5 -17 10 -25 5 -8 10 -10 10 -5 0 6 -5 17 -10 25 -5
8 -10 11 -10 5z"/>
<path d="M7733 614 c2 -36 7 -68 10 -71 15 -14 27 14 27 62 0 61 14 72 77 60
24 -4 33 -3 28 4 -3 6 -38 11 -77 11 l-71 0 6 -66z"/>
<path d="M8900 635 c-16 -19 -6 -31 38 -45 20 -7 52 -21 70 -31 17 -10 32 -14
32 -9 0 5 -5 12 -10 15 -6 4 -8 15 -5 26 5 16 -2 23 -37 39 -52 24 -72 25 -88
5z"/>
<path d="M3042 598 c3 -46 17 -55 64 -44 19 5 24 13 24 36 0 33 -22 50 -65 50
-25 0 -26 -3 -23 -42z"/>
<path d="M7792 603 c3 -36 5 -38 38 -38 33 0 35 2 35 35 0 33 -2 35 -38 38
l-38 3 3 -38z"/>
<path d="M6711 628 c-2 -15 43 -122 46 -112 2 6 -7 36 -21 65 -13 30 -25 51
-25 47z"/>
<path d="M7041 558 c0 -31 3 -37 8 -24 7 18 3 66 -5 66 -2 0 -4 -19 -3 -42z"/>
<path d="M6607 546 c-8 -25 -13 -47 -9 -50 3 -3 21 -6 40 -6 31 0 34 2 28 25
-11 44 -25 75 -35 75 -5 0 -16 -20 -24 -44z"/>
<path d="M6760 491 c0 -6 4 -13 10 -16 6 -3 7 1 4 9 -7 18 -14 21 -14 7z"/>
<path d="M7516 445 c-9 -26 -7 -32 5 -12 6 10 9 21 6 23 -2 3 -7 -2 -11 -11z"/>
<path d="M3139 403 c12 -23 29 -38 37 -31 2 3 -8 15 -22 29 -25 23 -26 23 -15
2z"/>
</g>
</svg>
